<?xml version="1.0" encoding="UTF-8"?>
<svg xmlns="http://www.w3.org/2000/svg" xmlns:xlink="http://www.w3.org/1999/xlink" width="810pt" height="809.999993pt" viewBox="0 0 810 809.999993" version="1.2">
<g id="surface1">
<path style=" stroke:none;fill-rule:evenodd;fill:rgb(0%,0%,0%);fill-opacity:1;" d="M 271.1875 636.046875 C 265.082031 640.589844 266.164062 651.28125 272.097656 655.105469 C 282.835938 656.769531 285.917969 650.773438 292.972656 648.753906 C 296.382812 649.882812 293.699219 657.101562 296.605469 658.738281 C 306.136719 662.160156 314.175781 657.203125 317.484375 651.476562 C 322.5625 657.914062 327.605469 668.136719 341.082031 663.277344 C 345.820312 658.933594 347.300781 651.339844 346.53125 641.496094 C 340.40625 640.460938 334.082031 643.226562 330.191406 641.496094 C 328.875 639.179688 329.015625 635.40625 327.46875 633.324219 C 318.117188 623.925781 282.300781 619.113281 277.539062 636.046875 C 273.777344 636.289062 274.003906 634.855469 271.1875 636.046875 Z M 470.894531 636.046875 C 466.671875 638.179688 461.925781 639.789062 456.371094 640.585938 C 455.179688 662.339844 485.082031 657.488281 486.328125 641.496094 C 493.347656 647.023438 501.4375 655.835938 515.371094 651.476562 C 516.773438 646.210938 511.558594 642.210938 516.285156 636.957031 C 524.996094 638.339844 536.609375 642.40625 540.789062 634.230469 C 534.6875 607.539062 487.734375 621.351562 471.804688 629.691406 C 472.53125 632.84375 470.453125 633.179688 470.894531 636.046875 Z M 446.386719 173.160156 C 440.550781 177.617188 444.457031 191.804688 440.03125 197.664062 C 433.304688 190.476562 431.980469 177.875 423.691406 172.25 C 415.414062 180.179688 414.121094 194.070312 416.429688 205.832031 C 404.554688 206.332031 394.230469 201.945312 381.933594 201.292969 C 328.847656 198.480469 290.289062 228.574219 267.554688 267.550781 C 243.441406 308.90625 234.132812 360.164062 253.027344 407.324219 C 255.734375 414.066406 258.703125 420.203125 262.109375 426.382812 C 265.023438 431.671875 270.9375 437.242188 269.371094 444.539062 C 256.035156 445.558594 247.042969 434.964844 233.96875 434.554688 C 210.066406 433.804688 193.230469 458.828125 198.566406 482.660156 C 204.324219 508.367188 240.96875 521.894531 262.109375 533.484375 C 266.453125 557.167969 266.59375 597.78125 276.632812 623.339844 C 294.058594 609.671875 329.335938 617.359375 338.359375 633.324219 C 379.273438 634.296875 419.84375 642.871094 460.003906 631.507812 C 472.425781 617.742188 487.527344 613.53125 508.113281 610.632812 C 512.546875 610.007812 518.632812 611.882812 522.636719 610.632812 C 530.8125 608.078125 542.285156 585.429688 543.515625 572.511719 C 545.371094 553.054688 536.707031 535.828125 541.699219 518.964844 C 569.101562 507.28125 614.449219 488.785156 607.96875 445.445312 C 605.777344 430.804688 591.1875 416.304688 571.65625 416.402344 C 559.917969 416.460938 547.769531 422.394531 538.070312 428.203125 C 527.828125 434.328125 519.632812 442.664062 510.832031 445.445312 C 508.800781 436.644531 520.09375 433.605469 525.359375 429.109375 C 536.371094 392.429688 543.746094 349.9375 530.804688 312.929688 C 524.996094 296.320312 511.257812 279.007812 499.941406 264.828125 C 487.832031 249.65625 472.9375 236.390625 458.183594 228.523438 C 458.363281 225.015625 458.21875 221.835938 457.277344 219.449219 C 468.292969 219.992188 489.449219 218.328125 491.773438 206.738281 C 493.484375 198.210938 487.976562 191.503906 480.878906 190.402344 C 469.878906 188.699219 464.277344 201.628906 458.183594 207.648438 C 452.289062 199.335938 461.125 171.625 446.386719 173.160156 Z M 423.691406 161.355469 C 430.238281 161.882812 430.460938 170.992188 436.398438 174.066406 C 444.570312 150.570312 465.691406 170.441406 464.539062 186.773438 C 482.113281 173.605469 505.417969 187.253906 499.941406 210.375 C 497.40625 221.0625 485.945312 223.148438 477.25 229.429688 C 494.992188 242.140625 509.769531 259.820312 522.636719 279.351562 C 535.992188 299.625 543.890625 321.578125 546.242188 351.050781 C 548.128906 374.746094 542.621094 397 537.160156 417.308594 C 549.574219 409.789062 577.335938 401.011719 595.257812 410.050781 C 603.652344 414.28125 613.75 428.210938 616.132812 437.277344 C 621.273438 456.785156 611.425781 483.273438 599.796875 496.273438 C 585 512.804688 566.703125 517.59375 548.960938 528.039062 C 554.070312 559.59375 552.566406 594.96875 536.253906 612.449219 C 543.019531 618.027344 552.855469 627.390625 550.78125 637.859375 C 548.988281 646.898438 536.71875 650.859375 526.265625 649.660156 C 525.835938 667.714844 498.722656 664.488281 489.050781 656.917969 C 478.859375 670.722656 446.480469 666.632812 447.292969 646.03125 C 418.917969 653.4375 383.554688 645.402344 354.703125 646.03125 C 355.789062 665.714844 344.558594 679.316406 325.65625 673.257812 C 321.039062 671.78125 318.457031 666.214844 315.667969 666 C 315.988281 666.023438 310.730469 669.261719 309.3125 669.628906 C 298.179688 672.5 290.460938 668.347656 286.621094 662.367188 C 259.878906 676.511719 249.339844 638.535156 267.554688 626.0625 C 258.328125 603.101562 256.316406 568.484375 254.847656 540.746094 C 230.769531 529.171875 190.386719 514.136719 189.492188 477.210938 C 188.597656 440.757812 219.761719 411.664062 252.125 428.203125 C 213.546875 358.726562 240.839844 268.882812 287.527344 223.988281 C 312.929688 199.550781 360.480469 181.257812 406.441406 192.21875 C 407.851562 180.597656 413.855469 160.570312 423.691406 161.355469 "/>
<path style=" stroke:none;fill-rule:evenodd;fill:rgb(100%,96.859741%,60.778809%);fill-opacity:1;" d="M 371.042969 563.4375 C 374.289062 580.234375 391.019531 556.285156 371.042969 563.4375 Z M 390.101562 552.546875 C 390.863281 557.15625 393.980469 563.480469 399.183594 560.714844 C 398.589844 555.929688 393.730469 551.351562 390.101562 552.546875 Z M 509.023438 504.441406 C 503.636719 506.320312 501.976562 511.925781 497.21875 514.425781 C 502.660156 519.914062 512.292969 510.613281 509.023438 504.441406 Z M 511.746094 518.964844 C 517.269531 516.925781 519.867188 511.953125 520.824219 505.351562 C 514.855469 500.492188 510.089844 513.519531 511.746094 518.964844 Z M 329.28125 499.902344 C 325.058594 498.703125 326.246094 502.917969 322.019531 501.714844 C 321.242188 505.828125 323.023438 507.371094 325.65625 508.074219 C 329.378906 508.046875 331.617188 503.125 329.28125 499.902344 Z M 315.667969 496.273438 C 312.257812 499.824219 309.816406 504.339844 307.496094 508.976562 C 312.691406 514.152344 321.164062 501.789062 315.667969 496.273438 Z M 336.542969 406.417969 C 336.574219 411.046875 340.078125 406.929688 342.898438 409.140625 C 360.492188 435.695312 423.539062 435.136719 448.203125 414.585938 C 452.429688 401.617188 440.722656 394.351562 430.046875 387.359375 C 404.589844 370.691406 341.84375 371.355469 336.542969 406.417969 Z M 308.40625 371.019531 C 290.84375 365.644531 296.261719 408.554688 307.496094 410.050781 C 323.832031 412.21875 317.394531 373.769531 308.40625 371.019531 Z M 478.15625 366.480469 C 469.714844 373.089844 464.988281 409.074219 482.695312 406.417969 C 494.082031 404.707031 496.644531 365.640625 478.15625 366.480469 Z M 458.183594 207.644531 C 464.277344 201.628906 469.878906 188.699219 480.878906 190.40625 C 487.980469 191.503906 493.484375 198.210938 491.777344 206.738281 C 489.449219 218.328125 468.292969 219.992188 457.277344 219.445312 C 458.21875 221.835938 458.363281 225.015625 458.183594 228.523438 C 472.9375 236.390625 487.835938 249.65625 499.945312 264.828125 C 511.261719 279.007812 524.996094 296.320312 530.804688 312.929688 C 543.746094 349.9375 536.371094 392.429688 525.359375 429.109375 C 520.09375 433.605469 508.804688 436.644531 510.835938 445.445312 C 519.632812 442.664062 527.832031 434.328125 538.070312 428.203125 C 547.769531 422.394531 559.914062 416.460938 571.65625 416.398438 C 591.1875 416.304688 605.777344 430.804688 607.96875 445.445312 C 614.449219 488.785156 569.097656 507.28125 541.699219 518.964844 C 536.707031 535.828125 545.371094 553.054688 543.519531 572.511719 C 542.285156 585.429688 530.8125 608.078125 522.636719 610.632812 C 518.632812 611.882812 512.550781 610.007812 508.109375 610.632812 C 487.527344 613.53125 472.425781 617.742188 460.003906 631.507812 C 419.84375 642.867188 379.273438 634.296875 338.363281 633.324219 C 329.339844 617.359375 294.058594 609.671875 276.632812 623.339844 C 266.59375 597.78125 266.453125 557.167969 262.109375 533.484375 C 240.96875 521.894531 204.324219 508.367188 198.566406 482.660156 C 193.230469 458.828125 210.070312 433.804688 233.96875 434.550781 C 247.042969 434.964844 256.035156 445.558594 269.371094 444.539062 C 270.9375 437.242188 265.023438 431.671875 262.109375 426.382812 C 258.703125 420.203125 255.734375 414.066406 253.03125 407.324219 C 234.132812 360.164062 243.441406 308.90625 267.558594 267.550781 C 290.289062 228.570312 328.851562 198.476562 381.933594 201.292969 C 394.230469 201.945312 404.554688 206.332031 416.433594 205.832031 C 414.125 194.070312 415.417969 180.175781 423.691406 172.25 C 431.984375 177.875 433.304688 190.472656 440.03125 197.664062 C 444.457031 191.800781 440.550781 177.613281 446.386719 173.15625 C 461.125 171.625 452.289062 199.332031 458.183594 207.644531 "/>
<path style=" stroke:none;fill-rule:evenodd;fill:rgb(0%,0%,0%);fill-opacity:1;" d="M 478.15625 366.484375 C 469.710938 373.089844 464.984375 409.074219 482.695312 406.421875 C 494.082031 404.710938 496.640625 365.640625 478.15625 366.484375 "/>
<path style=" stroke:none;fill-rule:evenodd;fill:rgb(0%,0%,0%);fill-opacity:1;" d="M 308.40625 371.019531 C 290.84375 365.648438 296.261719 408.554688 307.496094 410.050781 C 323.832031 412.222656 317.394531 373.769531 308.40625 371.019531 "/>
<path style=" stroke:none;fill-rule:evenodd;fill:rgb(0%,0%,0%);fill-opacity:1;" d="M 344.714844 401.882812 C 365.726562 424.171875 415.066406 426.5 440.9375 410.050781 C 426.796875 381.609375 365.1875 375.847656 344.714844 401.882812 Z M 430.046875 387.359375 C 440.722656 394.351562 452.429688 401.617188 448.199219 414.589844 C 423.539062 435.136719 360.488281 435.699219 342.898438 409.140625 C 340.078125 406.929688 336.574219 411.046875 336.542969 406.417969 C 341.84375 371.359375 404.589844 370.691406 430.046875 387.359375 "/>
<path style=" stroke:none;fill-rule:evenodd;fill:rgb(100%,56.858826%,30.198669%);fill-opacity:1;" d="M 344.714844 401.882812 C 365.722656 424.171875 415.066406 426.503906 440.941406 410.050781 C 426.796875 381.609375 365.1875 375.847656 344.714844 401.882812 "/>
<path style=" stroke:none;fill-rule:evenodd;fill:rgb(0%,0%,0%);fill-opacity:1;" d="M 315.667969 496.273438 C 312.257812 499.824219 309.816406 504.339844 307.496094 508.976562 C 312.691406 514.152344 321.164062 501.792969 315.667969 496.273438 "/>
<path style=" stroke:none;fill-rule:evenodd;fill:rgb(0%,0%,0%);fill-opacity:1;" d="M 329.28125 499.902344 C 325.058594 498.703125 326.246094 502.917969 322.019531 501.71875 C 321.242188 505.828125 323.023438 507.371094 325.65625 508.074219 C 329.378906 508.046875 331.617188 503.125 329.28125 499.902344 "/>
<path style=" stroke:none;fill-rule:evenodd;fill:rgb(0%,0%,0%);fill-opacity:1;" d="M 511.746094 518.964844 C 517.269531 516.925781 519.867188 511.953125 520.824219 505.351562 C 514.855469 500.492188 510.089844 513.519531 511.746094 518.964844 "/>
<path style=" stroke:none;fill-rule:evenodd;fill:rgb(0%,0%,0%);fill-opacity:1;" d="M 509.023438 504.441406 C 503.636719 506.320312 501.976562 511.925781 497.21875 514.425781 C 502.660156 519.914062 512.292969 510.613281 509.023438 504.441406 "/>
<path style=" stroke:none;fill-rule:evenodd;fill:rgb(0%,0%,0%);fill-opacity:1;" d="M 390.101562 552.546875 C 390.863281 557.15625 393.980469 563.480469 399.179688 560.714844 C 398.589844 555.929688 393.730469 551.351562 390.101562 552.546875 "/>
<path style=" stroke:none;fill-rule:evenodd;fill:rgb(0%,0%,0%);fill-opacity:1;" d="M 371.042969 563.4375 C 374.289062 580.234375 391.019531 556.285156 371.042969 563.4375 "/>
<path style=" stroke:none;fill-rule:evenodd;fill:rgb(100%,56.858826%,30.198669%);fill-opacity:1;" d="M 470.894531 636.046875 C 466.671875 638.179688 461.925781 639.789062 456.371094 640.585938 C 455.179688 662.339844 485.082031 657.488281 486.328125 641.496094 C 493.347656 647.023438 501.433594 655.835938 515.375 651.476562 C 516.773438 646.210938 511.558594 642.210938 516.28125 636.957031 C 524.996094 638.339844 536.609375 642.40625 540.789062 634.230469 C 534.6875 607.539062 487.734375 621.351562 471.800781 629.691406 C 472.53125 632.839844 470.449219 633.183594 470.894531 636.046875 "/>
<path style=" stroke:none;fill-rule:evenodd;fill:rgb(100%,56.858826%,30.198669%);fill-opacity:1;" d="M 271.1875 636.046875 C 265.082031 640.589844 266.164062 651.28125 272.097656 655.105469 C 282.835938 656.769531 285.917969 650.773438 292.972656 648.753906 C 296.382812 649.882812 293.699219 657.101562 296.605469 658.738281 C 306.136719 662.160156 314.175781 657.203125 317.484375 651.476562 C 322.5625 657.914062 327.605469 668.136719 341.082031 663.277344 C 345.820312 658.933594 347.300781 651.339844 346.53125 641.496094 C 340.40625 640.460938 334.082031 643.226562 330.191406 641.496094 C 328.875 639.179688 329.015625 635.40625 327.46875 633.324219 C 318.117188 623.925781 282.300781 619.113281 277.539062 636.046875 C 273.777344 636.289062 274 634.855469 271.1875 636.046875 "/>
</g>
</svg>
