<svg xmlns="http://www.w3.org/2000/svg" xmlns:xlink="http://www.w3.org/1999/xlink" viewBox="0 0 586.94 515.23"><defs><style>.cls-1{mask:url(#mask);}.cls-10,.cls-12,.cls-2,.cls-4,.cls-6,.cls-8{mix-blend-mode:multiply;}.cls-2{fill:url(#linear-gradient);}.cls-3{mask:url(#mask-2);}.cls-4{fill:url(#linear-gradient-2);}.cls-5{mask:url(#mask-3);}.cls-6{fill:url(#linear-gradient-3);}.cls-7{mask:url(#mask-4);}.cls-8{fill:url(#linear-gradient-4);}.cls-9{mask:url(#mask-5);}.cls-10{fill:url(#linear-gradient-5);}.cls-11{mask:url(#mask-6);}.cls-12{fill:url(#linear-gradient-6);}.cls-13{fill:none;}.cls-14{isolation:isolate;}.cls-15{clip-path:url(#clip-path);}.cls-16{fill:#006616;}.cls-17{fill:url(#linear-gradient-7);}.cls-18{mask:url(#mask-7);}.cls-19{fill:url(#linear-gradient-8);}.cls-20{fill:url(#linear-gradient-9);}.cls-21{mask:url(#mask-8);}.cls-22{fill:url(#linear-gradient-10);}.cls-23{mask:url(#mask-9);}.cls-24{fill:url(#linear-gradient-11);}.cls-25{mask:url(#mask-10);}.cls-26{fill:url(#linear-gradient-12);}.cls-27{mask:url(#mask-11);}.cls-28,.cls-30,.cls-35,.cls-36{opacity:0.4;}.cls-28{fill:url(#linear-gradient-13);}.cls-29{mask:url(#mask-12);}.cls-30{fill:url(#linear-gradient-14);}.cls-31,.cls-38{opacity:0.8;mix-blend-mode:overlay;}.cls-32{opacity:0.7;}.cls-33,.cls-38{fill:#fff;}.cls-34{fill:#e9ffc7;}.cls-36{fill:#eeff8c;}.cls-37{fill:#8cffa3;opacity:0.3;}.cls-39{filter:url(#luminosity-noclip-12);}.cls-40{filter:url(#luminosity-noclip-11);}.cls-41{filter:url(#luminosity-noclip-10);}.cls-42{filter:url(#luminosity-noclip-9);}.cls-43{filter:url(#luminosity-noclip-8);}.cls-44{filter:url(#luminosity-noclip-7);}.cls-45{filter:url(#luminosity-noclip-6);}.cls-46{filter:url(#luminosity-noclip-5);}.cls-47{filter:url(#luminosity-noclip-4);}.cls-48{filter:url(#luminosity-noclip-3);}.cls-49{filter:url(#luminosity-noclip-2);}.cls-50{filter:url(#luminosity-noclip);}</style><filter id="luminosity-noclip" x="-99.61" y="-8304" width="215.97" height="32766" filterUnits="userSpaceOnUse" color-interpolation-filters="sRGB"><feFlood flood-color="#fff" result="bg"/><feBlend in="SourceGraphic" in2="bg"/></filter><mask id="mask" x="-99.61" y="-8304" width="215.97" height="32766" maskUnits="userSpaceOnUse"><g class="cls-50"/></mask><linearGradient id="linear-gradient" x1="-1.02" y1="-49.13" x2="24.46" y2="158.36" gradientUnits="userSpaceOnUse"><stop offset="0.02" stop-color="#fff"/><stop offset="0.32" stop-color="#666"/><stop offset="0.66" stop-color="#e6e6e6"/><stop offset="1" stop-color="#fff"/></linearGradient><filter id="luminosity-noclip-2" x="8.13" y="-8304" width="174.16" height="32766" filterUnits="userSpaceOnUse" color-interpolation-filters="sRGB"><feFlood flood-color="#fff" result="bg"/><feBlend in="SourceGraphic" in2="bg"/></filter><mask id="mask-2" x="8.13" y="-8304" width="174.16" height="32766" maskUnits="userSpaceOnUse"><g class="cls-49"/></mask><linearGradient id="linear-gradient-2" x1="1391.27" y1="-2380.06" x2="1489.27" y2="-2243.85" gradientTransform="matrix(-0.91, 0.41, -0.41, -0.91, 470.77, -2452.92)" gradientUnits="userSpaceOnUse"><stop offset="0.12" stop-color="#fff"/><stop offset="0.42" stop-color="#b3b3b3"/><stop offset="0.71" stop-color="#fff"/><stop offset="1" stop-color="#fff"/></linearGradient><filter id="luminosity-noclip-3" x="-7.69" y="-8304" width="307.24" height="32766" filterUnits="userSpaceOnUse" color-interpolation-filters="sRGB"><feFlood flood-color="#fff" result="bg"/><feBlend in="SourceGraphic" in2="bg"/></filter><mask id="mask-3" x="-7.69" y="-8304" width="307.24" height="32766" maskUnits="userSpaceOnUse"><g class="cls-48"/></mask><linearGradient id="linear-gradient-3" x1="114.76" y1="351.39" x2="334.33" y2="160.53" gradientTransform="matrix(0.99, -0.13, 0.13, 0.99, -108.68, 29.97)" xlink:href="#linear-gradient-2"/><filter id="luminosity-noclip-4" x="223.48" y="-8304" width="259.37" height="32766" filterUnits="userSpaceOnUse" color-interpolation-filters="sRGB"><feFlood flood-color="#fff" result="bg"/><feBlend in="SourceGraphic" in2="bg"/></filter><mask id="mask-4" x="223.48" y="-8304" width="259.37" height="32766" maskUnits="userSpaceOnUse"><g class="cls-47"/></mask><linearGradient id="linear-gradient-4" x1="366.22" y1="-167.83" x2="332.83" y2="21.53" gradientTransform="matrix(1, 0, 0, 1, 0, 0)" xlink:href="#linear-gradient-2"/><filter id="luminosity-noclip-5" x="-45.95" y="-8304" width="157.73" height="32766" filterUnits="userSpaceOnUse" color-interpolation-filters="sRGB"><feFlood flood-color="#fff" result="bg"/><feBlend in="SourceGraphic" in2="bg"/></filter><mask id="mask-5" x="-45.95" y="-8304" width="157.73" height="32766" maskUnits="userSpaceOnUse"><g class="cls-46"/></mask><linearGradient id="linear-gradient-5" x1="2099.96" y1="-2203.39" x2="2197.97" y2="-2067.18" gradientTransform="translate(2836.28 -910.18) rotate(-157.86)" xlink:href="#linear-gradient-2"/><filter id="luminosity-noclip-6" x="313.18" y="-8304" width="174.16" height="32766" filterUnits="userSpaceOnUse" color-interpolation-filters="sRGB"><feFlood flood-color="#fff" result="bg"/><feBlend in="SourceGraphic" in2="bg"/></filter><mask id="mask-6" x="313.18" y="-8304" width="174.16" height="32766" maskUnits="userSpaceOnUse"><g class="cls-45"/></mask><linearGradient id="linear-gradient-6" x1="1049.5" y1="-2364.12" x2="1147.5" y2="-2227.91" xlink:href="#linear-gradient-2"/><clipPath id="clip-path" transform="translate(99.61 169.96)"><rect id="SVGID" class="cls-13" width="400" height="225"/></clipPath><linearGradient id="linear-gradient-7" x1="-36.07" y1="80.22" x2="266.52" y2="80.22" gradientUnits="userSpaceOnUse"><stop offset="0.1" stop-color="#00551a"/><stop offset="0.87" stop-color="#6f5"/></linearGradient><filter id="luminosity-noclip-7" x="-99.61" y="-46.61" width="215.97" height="210.21" filterUnits="userSpaceOnUse" color-interpolation-filters="sRGB"><feFlood flood-color="#fff" result="bg"/><feBlend in="SourceGraphic" in2="bg"/></filter><mask id="mask-7" x="0" y="123.35" width="215.97" height="210.21" maskUnits="userSpaceOnUse"><g class="cls-44"><g transform="translate(99.61 169.96)"><g class="cls-1"><path class="cls-2" d="M42,41.52C28.12,20-14.5,6.89-19.58,43.17c-4.56,32.56,38.33,23,52.23,41,17.12,22.18-3.54,58.17-23.82,70.74-24.6,15.25-55.25,9.56-75.67-9.79-43.28-41-41.32-115.53-8-162.69C-58-41.3-29.31-50.47-1.29-45.14,13-42.43,25.47-33.92,39.64-31.23c15.26,2.9,28.18-5,42.86-7.28,15.65-2.42,32.16,3.92,33.77,21.76,1.33,14.82-11.53,30-16,43.76C96,40.07,93.57,53.55,79.65,59.58,61.57,67.41,51.9,54.07,42,41.52Z"/></g></g></g></mask><linearGradient id="linear-gradient-8" x1="-99.61" y1="58.5" x2="116.36" y2="58.5" gradientUnits="userSpaceOnUse"><stop offset="0.1" stop-color="#00551a"/><stop offset="1" stop-color="#6f5"/></linearGradient><linearGradient id="linear-gradient-9" x1="197.52" y1="118.3" x2="425.73" y2="118.3" gradientUnits="userSpaceOnUse"><stop offset="0.11" stop-color="#6f5"/><stop offset="1" stop-color="#00551a"/></linearGradient><filter id="luminosity-noclip-8" x="-7.69" y="177.47" width="307.24" height="167.8" filterUnits="userSpaceOnUse" color-interpolation-filters="sRGB"><feFlood flood-color="#fff" result="bg"/><feBlend in="SourceGraphic" in2="bg"/></filter><mask id="mask-8" x="91.92" y="347.44" width="307.24" height="167.8" maskUnits="userSpaceOnUse"><g class="cls-43"><g transform="translate(99.61 169.96)"><g class="cls-5"><path class="cls-6" d="M299.52,210.77c-.48,26.28-31.86,36.87-38.58,60.66-2.85,10.08-.12,27.17-14.45,29.2-11.38,1.6-20.29-12.91-29-18-14.91-8.69-24.88-2-38.17,6.22-17.21,10.63-35.19,19.44-52.71,29.46-28,16-60.66,33.66-94.42,24.33C1.5,334.18-16.69,292.42-3.14,264,10.05,236.28,39.2,232.57,66,238.49c18.51,4.08,53.25,16.44,70.43,4.83,5.73-3.87,9.53-10.38,10.66-20.37C145.5,208,145,189,159.5,181c23.5-12.5,43,11,56.38,27.31,4.69,3.36,10.25,4.94,17.44,3.35,15.56-3.44,23.34-20.85,38.66-24.95C288.07,182.4,300.26,194.87,299.52,210.77Z"/></g></g></g></mask><linearGradient id="linear-gradient-10" x1="-7.69" y1="261.37" x2="299.55" y2="261.37" xlink:href="#linear-gradient-7"/><filter id="luminosity-noclip-9" x="223.48" y="-169.96" width="259.37" height="190.6" filterUnits="userSpaceOnUse" color-interpolation-filters="sRGB"><feFlood flood-color="#fff" result="bg"/><feBlend in="SourceGraphic" in2="bg"/></filter><mask id="mask-9" x="323.08" y="0" width="259.37" height="190.6" maskUnits="userSpaceOnUse"><g class="cls-42"><g transform="translate(99.61 169.96)"><g class="cls-7"><path class="cls-8" d="M482.84-103.21c.34,28.35-14.77,58.12-38.68,73.61-10,6.47-21.61,11.63-33.15,5.73-13.76-7-22.42-23.56-40.44-20.77-35.63,5.52,4.13,59.34-36.89,65C306,24.21,293.07-15.48,277.13-31c-18.6-18.08-47.68-20.43-52.9-49.94-4.6-26,12.44-37.54,33.89-46.36,24-9.86,42.68-28,66.26-37.94,24.17-10.17,60.13-4.72,68.64,23.59,3.2,10.65.72,23.58,12.67,29.15,8.49,4,18.56-.16,26.82-2.67C450.77-120.72,480.1-132.3,482.84-103.21Z"/></g></g></g></mask><linearGradient id="linear-gradient-11" x1="223.48" y1="-74.66" x2="482.84" y2="-74.66" gradientUnits="userSpaceOnUse"><stop offset="0.1" stop-color="#00551a"/><stop offset="0.47" stop-color="#6f5"/></linearGradient><filter id="luminosity-noclip-10" x="-45.95" y="186.11" width="157.73" height="155.46" filterUnits="userSpaceOnUse" color-interpolation-filters="sRGB"><feFlood flood-color="#fff" result="bg"/><feBlend in="SourceGraphic" in2="bg"/></filter><mask id="mask-10" x="53.65" y="356.07" width="157.73" height="155.46" maskUnits="userSpaceOnUse"><g class="cls-41"><g transform="translate(99.61 169.96)"><g class="cls-9"><path class="cls-10" d="M-45.22,210c4.75-24.66,35.22-30.06,53.48-16.81,9,6.49,14.73,18.11,26.26,20.79,11.19,2.6,20-4.75,29.6-9,24-10.78,47.8.56,47.66,28.85-.12,22.37-15.89,44-22.8,64.91-7.5,22.66-19,46.72-46.8,42.41C24.79,338.36.26,327.14-4,308c-4.28-19.4,22-34.36,9.09-53.16C-9.06,234.19-52.07,245.53-45.22,210Z"/></g></g></g></mask><linearGradient id="linear-gradient-12" x1="-45.95" y1="263.84" x2="111.78" y2="263.84" gradientUnits="userSpaceOnUse"><stop offset="0.1" stop-color="#00551a"/><stop offset="1" stop-color="#6f5"/></linearGradient><filter id="luminosity-noclip-11" x="313.18" y="13.4" width="174.16" height="149.77" filterUnits="userSpaceOnUse" color-interpolation-filters="sRGB"><feFlood flood-color="#fff" result="bg"/><feBlend in="SourceGraphic" in2="bg"/></filter><mask id="mask-11" x="412.78" y="183.36" width="174.16" height="149.77" maskUnits="userSpaceOnUse"><g class="cls-40"><g transform="translate(99.61 169.96)"><g class="cls-11"><path class="cls-12" d="M318.59,121.22C304,100.78,321.12,75,343.3,70.9c10.88-2,23.27,1.82,33.16-4.68,9.6-6.31,10.39-17.78,13.87-27.67,8.73-24.8,33.37-34.23,53.76-14.61C460.21,39.44,465,65.81,475.37,85.2c11.24,21.06,20.74,46-1.56,63.14-13.94,10.73-39,20.76-55.75,10.63-17-10.28-9.7-39.63-32.22-43.24C361.08,111.75,339.63,150.72,318.59,121.22Z"/></g></g></g></mask><linearGradient id="linear-gradient-13" x1="313.18" y1="88.29" x2="487.34" y2="88.29" xlink:href="#linear-gradient-7"/><filter id="luminosity-noclip-12" x="8.13" y="168.4" width="174.16" height="149.77" filterUnits="userSpaceOnUse" color-interpolation-filters="sRGB"><feFlood flood-color="#fff" result="bg"/><feBlend in="SourceGraphic" in2="bg"/></filter><mask id="mask-12" x="107.74" y="338.36" width="174.16" height="149.77" maskUnits="userSpaceOnUse"><g class="cls-39"><g transform="translate(99.61 169.96)"><g class="cls-3"><path class="cls-4" d="M13.55,276.22C-1,255.78,16.07,230,38.25,225.9c10.88-2,23.28,1.82,33.17-4.68,9.6-6.31,10.38-17.78,13.86-27.67,8.73-24.8,33.37-34.23,53.76-14.61,16.13,15.5,20.93,41.87,31.29,61.26,11.24,21.06,20.73,46-1.56,63.14-14,10.73-39,20.76-55.75,10.63-17-10.28-9.71-39.63-32.23-43.24C56,266.75,34.59,305.72,13.55,276.22Z"/></g></g></g></mask><linearGradient id="linear-gradient-14" x1="8.13" y1="243.29" x2="182.29" y2="243.29" xlink:href="#linear-gradient-8"/></defs><g class="cls-14"><g id="Layer_6" data-name="Layer 6"><g class="cls-15"><rect class="cls-16" x="99.61" y="169.96" width="400" height="225"/><path class="cls-17" d="M181.48,96c4.26,33.54-22.12,71-52.71,81.42-35,12-75.26-2.5-108.2-14.81C-10,151.2-34.94,127.5-36,92.91c-1.35-43.08,23-53.33,60.78-51,44.17,2.71,61.4-20.37,98.17-39.6,30.52-16,72.33-28.16,106.83-22.28,29.35,5,58.54,48.42,13.49,45.57C197.19,22.68,176.15,54.12,181.48,96Z" transform="translate(99.61 169.96)"/><g class="cls-18"><path class="cls-19" d="M42,41.52C28.12,20-14.5,6.89-19.58,43.17c-4.56,32.56,38.33,23,52.23,41,17.12,22.18-3.54,58.17-23.82,70.74-24.6,15.25-55.25,9.56-75.67-9.79-43.28-41-41.32-115.53-8-162.69C-58-41.3-29.31-50.47-1.29-45.14,13-42.43,25.47-33.92,39.64-31.23c15.26,2.9,28.18-5,42.86-7.28,15.65-2.42,32.16,3.92,33.77,21.76,1.33,14.82-11.53,30-16,43.76C96,40.07,93.57,53.55,79.65,59.58,61.57,67.41,51.9,54.07,42,41.52Z" transform="translate(99.61 169.96)"/></g><path class="cls-20" d="M422.34,116.41c1.35,18,9.3,48.48-5.17,63.17-21.74,22.06-47-8.09-63.85-19.58-29.81-20.29-56.55-.82-84.59,12.58-21.83,10.42-80.1,17.82-70.05-24.29,4.28-17.95,14.5-18.91,11.55-37.75-1.62-10.35-7.48-23.3-.76-33.06,9-13.07,30.38-7,43.7-9.26,17-2.94,33-21.52,49.87-18.8,32.18,5.18,18,55.69,53.92,57.43C377.71,107.86,417.82,79.64,422.34,116.41Z" transform="translate(99.61 169.96)"/><g class="cls-21"><path class="cls-22" d="M299.52,210.77c-.48,26.28-31.86,36.87-38.58,60.66-2.85,10.08-.12,27.17-14.45,29.2-11.38,1.6-20.29-12.91-29-18-14.91-8.69-24.88-2-38.17,6.22-17.21,10.63-35.19,19.44-52.71,29.46-28,16-60.66,33.66-94.42,24.33C1.5,334.18-16.69,292.42-3.14,264,10.05,236.28,39.2,232.57,66,238.49c18.51,4.08,53.25,16.44,70.43,4.83,5.73-3.87,9.53-10.38,10.66-20.37C145.5,208,145,189,159.5,181c23.5-12.5,43,11,56.38,27.31,4.69,3.36,10.25,4.94,17.44,3.35,15.56-3.44,23.34-20.85,38.66-24.95C288.07,182.4,300.26,194.87,299.52,210.77Z" transform="translate(99.61 169.96)"/></g><g class="cls-23"><path class="cls-24" d="M482.84-103.21c.34,28.35-14.77,58.12-38.68,73.61-10,6.47-21.61,11.63-33.15,5.73-13.76-7-22.42-23.56-40.44-20.77-35.63,5.52,4.13,59.34-36.89,65C306,24.21,293.07-15.48,277.13-31c-18.6-18.08-47.68-20.43-52.9-49.94-4.6-26,12.44-37.54,33.89-46.36,24-9.86,42.68-28,66.26-37.94,24.17-10.17,60.13-4.72,68.64,23.59,3.2,10.65.72,23.58,12.67,29.15,8.49,4,18.56-.16,26.82-2.67C450.77-120.72,480.1-132.3,482.84-103.21Z" transform="translate(99.61 169.96)"/></g><g class="cls-25"><path class="cls-26" d="M-45.22,210c4.75-24.66,35.22-30.06,53.48-16.81,9,6.49,14.73,18.11,26.26,20.79,11.19,2.6,20-4.75,29.6-9,24-10.78,47.8.56,47.66,28.85-.12,22.37-15.89,44-22.8,64.91-7.5,22.66-19,46.72-46.8,42.41C24.79,338.36.26,327.14-4,308c-4.28-19.4,22-34.36,9.09-53.16C-9.06,234.19-52.07,245.53-45.22,210Z" transform="translate(99.61 169.96)"/></g><g class="cls-27"><path class="cls-28" d="M318.59,121.22C304,100.78,321.12,75,343.3,70.9c10.88-2,23.27,1.82,33.16-4.68,9.6-6.31,10.39-17.78,13.87-27.67,8.73-24.8,33.37-34.23,53.76-14.61C460.21,39.44,465,65.81,475.37,85.2c11.24,21.06,20.74,46-1.56,63.14-13.94,10.73-39,20.76-55.75,10.63-17-10.28-9.7-39.63-32.22-43.24C361.08,111.75,339.63,150.72,318.59,121.22Z" transform="translate(99.61 169.96)"/></g><g class="cls-29"><path class="cls-30" d="M13.55,276.22C-1,255.78,16.07,230,38.25,225.9c10.88-2,23.28,1.82,33.17-4.68,9.6-6.31,10.38-17.78,13.86-27.67,8.73-24.8,33.37-34.23,53.76-14.61,16.13,15.5,20.93,41.87,31.29,61.26,11.24,21.06,20.73,46-1.56,63.14-14,10.73-39,20.76-55.75,10.63-17-10.28-9.71-39.63-32.23-43.24C56,266.75,34.59,305.72,13.55,276.22Z" transform="translate(99.61 169.96)"/></g><g class="cls-31"><g class="cls-32"><path class="cls-33" d="M23.54,103.3h-3v3h-.72v-3h-3v-.69h3v-3h.72v3h3Z" transform="translate(99.61 169.96)"/></g><g class="cls-32"><path class="cls-34" d="M196.87,16.52h-3v3h-.72v-3h-3v-.69h3v-3h.72v3h3Z" transform="translate(99.61 169.96)"/></g><g class="cls-35"><path class="cls-33" d="M372.26,51.21h-3v3h-.72v-3h-3v-.69h3v-3h.72v3h3Z" transform="translate(99.61 169.96)"/></g><circle class="cls-36" cx="131.77" cy="206.71" r="1.16"/><circle class="cls-37" cx="228.77" cy="262.8" r="1.16"/><path class="cls-38" d="M369,14.25a4.92,4.92,0,1,1-4.92-4.93A4.92,4.92,0,0,1,369,14.25Z" transform="translate(99.61 169.96)"/></g></g></g></g></svg>